<svg width="288" height="58" viewBox="0 0 288 58" fill="none" xmlns="http://www.w3.org/2000/svg">
<rect width="288" height="58" rx="10" fill="#A29875"/>
<path d="M55.92 38V37.16H68.82C69.9 37.16 70.8 36.87 71.52 36.29C72.26 35.69 72.83 34.91 73.23 33.95C73.65 32.99 73.87 31.94 73.89 30.8H75V38H55.92ZM59.1 37.55V15.53H63.51V37.55H59.1ZM68.52 31.52C68.5 30.48 68.33 29.65 68.01 29.03C67.69 28.39 67.16 27.93 66.42 27.65C65.68 27.37 64.67 27.23 63.39 27.23V26.39C64.67 26.39 65.68 26.26 66.42 26C67.18 25.74 67.71 25.32 68.01 24.74C68.33 24.14 68.5 23.35 68.52 22.37H69.63V31.52H68.52ZM73.2 21.44C73.18 20.5 72.97 19.64 72.57 18.86C72.19 18.06 71.65 17.42 70.95 16.94C70.25 16.46 69.4 16.22 68.4 16.22H55.92V15.38H74.34V21.44H73.2ZM86.8601 37.55L77.5601 24.8H82.1501L91.4501 37.55H86.8601ZM76.3001 38V37.16H82.2401V38H76.3001ZM78.3701 37.46L83.3201 31.52L83.8601 32.24L79.4501 37.46H78.3701ZM84.7301 38V37.16H92.7701V38H84.7301ZM76.3901 25.34V24.5H84.2801V25.34H76.3901ZM85.0001 31.19L84.3701 30.56L88.9901 25.07H90.0701L85.0001 31.19ZM86.5301 25.34V24.5H92.1701V25.34H86.5301ZM103.27 38.36C102.35 38.36 101.54 38.16 100.84 37.76C100.14 37.36 99.6198 36.86 99.2798 36.26H98.5598L99.1598 31.7C99.1598 33.62 99.4998 35.03 100.18 35.93C100.88 36.81 101.75 37.25 102.79 37.25C103.33 37.25 103.77 37.09 104.11 36.77C104.45 36.45 104.69 35.86 104.83 35C104.99 34.14 105.07 32.91 105.07 31.31C105.07 29.67 104.99 28.41 104.83 27.53C104.67 26.65 104.42 26.05 104.08 25.73C103.74 25.41 103.3 25.25 102.76 25.25C101.72 25.25 100.86 25.69 100.18 26.57C99.4998 27.45 99.1598 28.86 99.1598 30.8L98.5598 26.24H99.2798C99.6198 25.64 100.14 25.14 100.84 24.74C101.56 24.34 102.38 24.14 103.3 24.14C104.34 24.14 105.32 24.44 106.24 25.04C107.16 25.62 107.9 26.45 108.46 27.53C109.02 28.59 109.3 29.83 109.3 31.25C109.3 32.67 109.01 33.92 108.43 35C107.87 36.06 107.13 36.89 106.21 37.49C105.29 38.07 104.31 38.36 103.27 38.36ZM93.2798 47.42V46.58H102.16V47.42H93.2798ZM95.4398 46.97V24.98H99.1598V46.97H95.4398ZM93.0398 25.34V24.5H99.1598V25.34H93.0398ZM113.723 37.55V15.86H117.443V37.55H113.723ZM111.323 38V37.16H119.753V38H111.323ZM111.323 16.22V15.38H117.443V16.22H111.323ZM128.827 38.39C127.827 38.39 126.887 38.21 126.007 37.85C125.147 37.47 124.377 36.95 123.697 36.29C123.037 35.63 122.517 34.87 122.137 34.01C121.757 33.15 121.567 32.23 121.567 31.25C121.567 30.27 121.757 29.35 122.137 28.49C122.517 27.63 123.037 26.88 123.697 26.24C124.377 25.58 125.147 25.07 126.007 24.71C126.887 24.33 127.837 24.14 128.857 24.14C129.857 24.14 130.797 24.33 131.677 24.71C132.557 25.07 133.327 25.58 133.987 26.24C134.667 26.88 135.187 27.63 135.547 28.49C135.927 29.35 136.117 30.27 136.117 31.25C136.117 32.23 135.927 33.15 135.547 34.01C135.187 34.87 134.667 35.63 133.987 36.29C133.327 36.95 132.557 37.47 131.677 37.85C130.797 38.21 129.847 38.39 128.827 38.39ZM128.827 37.4C129.567 37.4 130.157 37.24 130.597 36.92C131.037 36.58 131.357 35.97 131.557 35.09C131.757 34.21 131.857 32.94 131.857 31.28C131.857 29.6 131.757 28.32 131.557 27.44C131.357 26.54 131.037 25.93 130.597 25.61C130.157 25.29 129.567 25.13 128.827 25.13C128.107 25.13 127.527 25.29 127.087 25.61C126.667 25.93 126.357 26.54 126.157 27.44C125.957 28.32 125.857 29.6 125.857 31.28C125.857 32.94 125.957 34.21 126.157 35.09C126.357 35.97 126.667 36.58 127.087 36.92C127.527 37.24 128.107 37.4 128.827 37.4ZM138.222 38V37.16H140.622V25.34H138.222V24.5H144.342V26.84H144.462C145.042 25.74 145.682 25.02 146.382 24.68C147.082 24.32 147.712 24.14 148.272 24.14C149.052 24.14 149.662 24.35 150.102 24.77C150.542 25.19 150.762 25.79 150.762 26.57C150.762 27.31 150.562 27.86 150.162 28.22C149.762 28.56 149.282 28.73 148.722 28.73C148.242 28.73 147.802 28.59 147.402 28.31C147.022 28.03 146.832 27.63 146.832 27.11C146.832 26.85 146.872 26.65 146.952 26.51C147.032 26.37 147.072 26.25 147.072 26.15C147.072 26.07 147.052 26.01 147.012 25.97C146.972 25.91 146.872 25.88 146.712 25.88C146.432 25.88 146.102 26.09 145.722 26.51C145.342 26.93 145.012 27.48 144.732 28.16C144.472 28.84 144.342 29.59 144.342 30.41V37.16H146.652V38H138.222ZM159.88 38.39C158.88 38.39 157.94 38.19 157.06 37.79C156.18 37.39 155.4 36.85 154.72 36.17C154.06 35.49 153.54 34.73 153.16 33.89C152.8 33.03 152.62 32.13 152.62 31.19C152.62 30.01 152.91 28.89 153.49 27.83C154.09 26.75 154.92 25.87 155.98 25.19C157.04 24.49 158.28 24.14 159.7 24.14C160.84 24.14 161.86 24.38 162.76 24.86C163.68 25.34 164.4 26.03 164.92 26.93C165.46 27.81 165.73 28.84 165.73 30.02V30.29H155.62V29.45H161.86V27.68C161.86 25.92 161.1 25.04 159.58 25.04C158.94 25.04 158.42 25.23 158.02 25.61C157.64 25.99 157.36 26.64 157.18 27.56C157 28.48 156.91 29.73 156.91 31.31C156.91 32.93 157 34.18 157.18 35.06C157.38 35.94 157.7 36.55 158.14 36.89C158.6 37.23 159.22 37.4 160 37.4C161.06 37.4 162 37.14 162.82 36.62C163.64 36.08 164.33 35.16 164.89 33.86H165.82C165.4 35.24 164.66 36.34 163.6 37.16C162.54 37.98 161.3 38.39 159.88 38.39ZM190.963 38.39L177.613 18.14H177.493V37.16H180.793V38H172.963V37.16H176.263V16.22H172.963V15.38H181.393L190.723 29.33H190.843V16.22H187.843V15.38H195.103V16.22H192.103V38.39H190.963ZM203.622 38.39C202.622 38.39 201.682 38.21 200.802 37.85C199.942 37.47 199.172 36.95 198.492 36.29C197.832 35.63 197.312 34.87 196.932 34.01C196.552 33.15 196.362 32.23 196.362 31.25C196.362 30.27 196.552 29.35 196.932 28.49C197.312 27.63 197.832 26.88 198.492 26.24C199.172 25.58 199.942 25.07 200.802 24.71C201.682 24.33 202.632 24.14 203.652 24.14C204.652 24.14 205.592 24.33 206.472 24.71C207.352 25.07 208.122 25.58 208.782 26.24C209.462 26.88 209.982 27.63 210.342 28.49C210.722 29.35 210.912 30.27 210.912 31.25C210.912 32.23 210.722 33.15 210.342 34.01C209.982 34.87 209.462 35.63 208.782 36.29C208.122 36.95 207.352 37.47 206.472 37.85C205.592 38.21 204.642 38.39 203.622 38.39ZM203.622 37.4C204.362 37.4 204.952 37.24 205.392 36.92C205.832 36.58 206.152 35.97 206.352 35.09C206.552 34.21 206.652 32.94 206.652 31.28C206.652 29.6 206.552 28.32 206.352 27.44C206.152 26.54 205.832 25.93 205.392 25.61C204.952 25.29 204.362 25.13 203.622 25.13C202.902 25.13 202.322 25.29 201.882 25.61C201.462 25.93 201.152 26.54 200.952 27.44C200.752 28.32 200.652 29.6 200.652 31.28C200.652 32.94 200.752 34.21 200.952 35.09C201.152 35.97 201.462 36.58 201.882 36.92C202.322 37.24 202.902 37.4 203.622 37.4ZM217.978 38.39L213.148 25.34H211.408V24.5H219.088V25.34H217.348L219.868 32.84H219.988L222.988 24.5H224.098L227.308 32.84H227.458L229.918 25.34H227.638V24.5H233.158V25.34H230.998L226.468 38.39H225.598L222.268 29.6H222.148L218.848 38.39H217.978Z" fill="white"/>
</svg>
