<svg width="477" height="164" viewBox="0 0 477 164" fill="none" xmlns="http://www.w3.org/2000/svg">
<path d="M4.6 30.4V0.84H10.92V30.4H4.6ZM0.8 31V29.8H14.84V31H0.8ZM0.8 2.04V0.84H14.84V2.04H0.8ZM32.1097 31.36L23.5497 3.64H23.3897V29.8H27.7897V31H17.2297V29.8H21.6297V2.04H17.2297V0.84H29.8697L35.5097 19.04H35.6697L41.3097 0.84H52.9097V2.04H48.7497V29.8H52.9097V31H38.1497V29.8H42.4297V3.64H42.2697L33.7497 31.36H32.1097ZM65.18 17.32V16.12H68.5C69.9667 16.12 71.1533 15.9333 72.06 15.56C72.9667 15.16 73.6333 14.44 74.06 13.4C74.4867 12.3333 74.7 10.8 74.7 8.8C74.7 6.90667 74.5267 5.48 74.18 4.52C73.8333 3.56 73.3133 2.90667 72.62 2.56C71.9533 2.21333 71.1133 2.04 70.1 2.04H55.3V0.84H72.1C74.02 0.84 75.74 1.18667 77.26 1.88C78.8067 2.57333 80.0333 3.53333 80.94 4.76C81.8467 5.96 82.3 7.34667 82.3 8.92C82.3 10.5733 81.74 12.04 80.62 13.32C79.5267 14.5733 77.9533 15.56 75.9 16.28C73.8467 16.9733 71.38 17.32 68.5 17.32H65.18ZM55.3 31V29.8H70.14V31H55.3ZM59.1 30.4V0.84H65.42V30.4H59.1ZM84.3078 31V29.8H101.228C102.721 29.8 103.988 29.4 105.028 28.6C106.068 27.8 106.868 26.7467 107.428 25.44C108.014 24.1333 108.321 22.72 108.348 21.2H109.948V31H84.3078ZM88.1078 30.4V0.84H94.4278V30.4H88.1078ZM101.588 22.36C101.561 21.08 101.308 20.0267 100.828 19.2C100.348 18.3733 99.5745 17.76 98.5078 17.36C97.4411 16.96 96.0278 16.76 94.2678 16.76V15.56C96.0278 15.56 97.4411 15.3733 98.5078 15C99.5745 14.6267 100.348 14.0533 100.828 13.28C101.308 12.5067 101.561 11.5333 101.588 10.36H103.188V22.36H101.588ZM107.748 8.84C107.721 7.61333 107.441 6.49333 106.908 5.48C106.401 4.44 105.668 3.61333 104.708 3C103.748 2.36 102.588 2.04 101.228 2.04H84.3078V0.84H109.348V8.84H107.748ZM128.839 31.52C126.733 31.52 124.799 31.1067 123.039 30.28C121.279 29.4533 119.746 28.3333 118.439 26.92C117.159 25.48 116.159 23.84 115.439 22C114.719 20.1333 114.359 18.1733 114.359 16.12C114.359 14.0667 114.706 12.1067 115.399 10.24C116.119 8.37333 117.133 6.70666 118.439 5.24C119.746 3.77333 121.293 2.61333 123.079 1.76C124.866 0.906666 126.839 0.48 128.999 0.48C130.386 0.48 131.573 0.679999 132.559 1.08C133.573 1.45333 134.613 2.04 135.679 2.84L137.439 0.84H138.439V10.08H137.239C136.946 8.53333 136.453 7.14667 135.759 5.92C135.093 4.66667 134.186 3.68 133.039 2.96C131.919 2.24 130.519 1.88 128.839 1.88C127.853 1.88 126.933 2.06666 126.079 2.44C125.253 2.81333 124.533 3.52 123.919 4.56C123.306 5.57333 122.826 7.05333 122.479 9C122.133 10.92 121.959 13.44 121.959 16.56C121.959 19.3067 122.093 21.5733 122.359 23.36C122.653 25.12 123.093 26.4933 123.679 27.48C124.266 28.4667 124.986 29.16 125.839 29.56C126.719 29.9333 127.733 30.12 128.879 30.12C130.693 30.12 132.199 29.76 133.399 29.04C134.626 28.32 135.586 27.3733 136.279 26.2C136.999 25 137.506 23.7067 137.799 22.32H138.999V31H137.799L136.039 29.16C134.893 29.9867 133.719 30.5867 132.519 30.96C131.346 31.3333 130.119 31.52 128.839 31.52ZM157.964 31.52C155.858 31.52 153.924 31.1067 152.164 30.28C150.404 29.4533 148.871 28.3333 147.564 26.92C146.284 25.48 145.284 23.84 144.564 22C143.844 20.1333 143.484 18.1733 143.484 16.12C143.484 14.0667 143.831 12.1067 144.524 10.24C145.244 8.37333 146.258 6.70666 147.564 5.24C148.871 3.77333 150.418 2.61333 152.204 1.76C153.991 0.906666 155.964 0.48 158.124 0.48C159.511 0.48 160.698 0.679999 161.684 1.08C162.698 1.45333 163.738 2.04 164.804 2.84L166.564 0.84H167.564V10.08H166.364C166.071 8.53333 165.578 7.14667 164.884 5.92C164.218 4.66667 163.311 3.68 162.164 2.96C161.044 2.24 159.644 1.88 157.964 1.88C156.978 1.88 156.058 2.06666 155.204 2.44C154.378 2.81333 153.658 3.52 153.044 4.56C152.431 5.57333 151.951 7.05333 151.604 9C151.258 10.92 151.084 13.44 151.084 16.56C151.084 19.3067 151.218 21.5733 151.484 23.36C151.778 25.12 152.218 26.4933 152.804 27.48C153.391 28.4667 154.111 29.16 154.964 29.56C155.844 29.9333 156.858 30.12 158.004 30.12C159.818 30.12 161.324 29.76 162.524 29.04C163.751 28.32 164.711 27.3733 165.404 26.2C166.124 25 166.631 23.7067 166.924 22.32H168.124V31H166.924L165.164 29.16C164.018 29.9867 162.844 30.5867 161.644 30.96C160.471 31.3333 159.244 31.52 157.964 31.52ZM191.618 30.4L184.298 10.36H184.138L183.898 8.88L186.618 0.48H187.658L198.538 30.4H191.618ZM171.298 31V29.8H181.058V31H171.298ZM178.458 22.84V21.68H192.218V22.84H178.458ZM187.218 31V29.8H201.098V31H187.218ZM174.818 30.4L186.618 0.48H187.658L185.578 6.84L176.138 30.4H174.818ZM202.492 31V29.8H217.012C218.186 29.8 219.186 29.6133 220.012 29.24C220.839 28.8667 221.479 28.1733 221.932 27.16C222.386 26.12 222.612 24.6533 222.612 22.76C222.612 21.08 222.412 19.7733 222.012 18.84C221.639 17.9067 220.986 17.2533 220.052 16.88C219.146 16.5067 217.906 16.32 216.332 16.32L215.132 14.92C218.039 14.92 220.586 15.2 222.772 15.76C224.959 16.2933 226.666 17.1733 227.892 18.4C229.119 19.6 229.732 21.2133 229.732 23.24C229.732 25.0267 229.239 26.4933 228.252 27.64C227.292 28.7867 225.972 29.64 224.292 30.2C222.612 30.7333 220.719 31 218.612 31H202.492ZM206.492 30.4V0.84H212.812V30.4H206.492ZM210.612 16.32V14.92H217.012C218.132 14.92 219.039 14.7467 219.732 14.4C220.452 14.0533 220.972 13.4133 221.292 12.48C221.639 11.5467 221.812 10.2 221.812 8.44C221.812 6.65333 221.639 5.30667 221.292 4.4C220.972 3.46667 220.452 2.84 219.732 2.52C219.039 2.2 218.132 2.04 217.012 2.04H202.492V0.84H218.612C220.479 0.84 222.159 1.12 223.652 1.68C225.172 2.24 226.372 3.08 227.252 4.2C228.159 5.32 228.612 6.72 228.612 8.4C228.612 10.1333 228.119 11.6 227.132 12.8C226.146 13.9733 224.786 14.8533 223.052 15.44C221.319 16.0267 219.306 16.32 217.012 16.32H210.612ZM233.331 31V29.8H250.251C251.745 29.8 253.011 29.4 254.051 28.6C255.091 27.8 255.891 26.7467 256.451 25.44C257.038 24.1333 257.345 22.72 257.371 21.2H258.971V31H233.331ZM237.131 30.4V0.84H243.451V30.4H237.131ZM233.331 2.04V0.84H248.171V2.04H233.331ZM261.558 31V29.8H278.478C279.971 29.8 281.238 29.4 282.278 28.6C283.318 27.8 284.118 26.7467 284.678 25.44C285.264 24.1333 285.571 22.72 285.598 21.2H287.198V31H261.558ZM265.358 30.4V0.84H271.678V30.4H265.358ZM278.838 22.36C278.811 21.08 278.558 20.0267 278.078 19.2C277.598 18.3733 276.824 17.76 275.758 17.36C274.691 16.96 273.278 16.76 271.518 16.76V15.56C273.278 15.56 274.691 15.3733 275.758 15C276.824 14.6267 277.598 14.0533 278.078 13.28C278.558 12.5067 278.811 11.5333 278.838 10.36H280.438V22.36H278.838ZM284.998 8.84C284.971 7.61333 284.691 6.49333 284.158 5.48C283.651 4.44 282.918 3.61333 281.958 3C280.998 2.36 279.838 2.04 278.478 2.04H261.558V0.84H286.598V8.84H284.998ZM16.48 97.52C14.3733 97.52 12.44 97.1067 10.68 96.28C8.92 95.4533 7.38667 94.3333 6.08 92.92C4.8 91.48 3.8 89.84 3.08 88C2.36 86.1333 2 84.1733 2 82.12C2 80.0667 2.34667 78.1067 3.04 76.24C3.76 74.3733 4.77333 72.7067 6.08 71.24C7.38667 69.7733 8.93333 68.6133 10.72 67.76C12.5067 66.9067 14.48 66.48 16.64 66.48C18.0267 66.48 19.2133 66.68 20.2 67.08C21.2133 67.4533 22.2533 68.04 23.32 68.84L25.08 66.84H26.08V76.08H24.88C24.5867 74.5333 24.0933 73.1467 23.4 71.92C22.7333 70.6667 21.8267 69.68 20.68 68.96C19.56 68.24 18.16 67.88 16.48 67.88C15.4933 67.88 14.5733 68.0667 13.72 68.44C12.8933 68.8133 12.1733 69.52 11.56 70.56C10.9467 71.5733 10.4667 73.0533 10.12 75C9.77333 76.92 9.6 79.44 9.6 82.56C9.6 85.3067 9.73333 87.5733 10 89.36C10.2933 91.12 10.7333 92.4933 11.32 93.48C11.9067 94.4667 12.6267 95.16 13.48 95.56C14.36 95.9333 15.3733 96.12 16.52 96.12C18.3333 96.12 19.84 95.76 21.04 95.04C22.2667 94.32 23.2267 93.3733 23.92 92.2C24.64 91 25.1467 89.7067 25.44 88.32H26.64V97H25.44L23.68 95.16C22.5333 95.9867 21.36 96.5867 20.16 96.96C18.9867 97.3333 17.76 97.52 16.48 97.52ZM40.1175 81.32V80.12H43.4375C44.7175 80.12 45.7575 79.96 46.5575 79.64C47.3575 79.32 47.9308 78.72 48.2775 77.84C48.6508 76.96 48.8375 75.68 48.8375 74C48.8375 72.2933 48.6642 71.0267 48.3175 70.2C47.9708 69.3467 47.4508 68.7733 46.7575 68.48C46.0908 68.1867 45.2508 68.04 44.2375 68.04H30.2375V66.84H46.2375C48.1575 66.84 49.8775 67.12 51.3975 67.68C52.9442 68.2133 54.1708 68.9867 55.0775 70C55.9842 71.0133 56.4375 72.2533 56.4375 73.72C56.4375 75.3467 55.9175 76.7333 54.8775 77.88C53.8375 79 52.3442 79.8533 50.3975 80.44C48.4775 81.0267 46.1575 81.32 43.4375 81.32H40.1175ZM30.2375 97V95.8H45.0775V97H30.2375ZM34.0375 96.4V66.84H40.3575V96.4H34.0375ZM54.9575 97C53.6242 97 52.4242 96.7467 51.3575 96.24C50.2908 95.7333 49.4242 95.0267 48.7575 94.12C48.1175 93.1867 47.7708 92.1067 47.7175 90.88L47.5175 86.52C47.4375 84.7333 46.9175 83.4267 45.9575 82.6C44.9975 81.7467 43.7708 81.32 42.2775 81.32L45.3175 81.08H47.9975V81.24C49.1975 81.5067 50.3575 82.0267 51.4775 82.8C52.6242 83.5733 53.5575 84.5067 54.2775 85.6C54.9975 86.6933 55.3575 87.88 55.3575 89.16V90.96C55.3575 92.8 55.5575 94.0533 55.9575 94.72C56.3575 95.3867 57.0775 95.72 58.1175 95.72H59.6375V97H54.9575ZM78.8294 96.4L71.5094 76.36H71.3494L71.1094 74.88L73.8294 66.48H74.8694L85.7494 96.4H78.8294ZM58.5094 97V95.8H68.2694V97H58.5094ZM65.6694 88.84V87.68H79.4294V88.84H65.6694ZM74.4294 97V95.8H88.3094V97H74.4294ZM62.0294 96.4L73.8294 66.48H74.8694L72.7894 72.84L63.3494 96.4H62.0294ZM112.943 75.44C112.916 74.1067 112.636 72.88 112.103 71.76C111.596 70.64 110.863 69.7467 109.903 69.08C108.943 68.3867 107.783 68.04 106.423 68.04H89.5031V66.84H114.543V75.44H112.943ZM89.5031 97V95.8H104.743V97H89.5031ZM93.3031 96.44V66.84H99.6231V96.44H93.3031ZM106.783 88.4C106.756 87.12 106.503 86.0667 106.023 85.24C105.543 84.4133 104.77 83.8 103.703 83.4C102.636 83 101.223 82.8 99.4631 82.8V81.6C101.223 81.6 102.636 81.4133 103.703 81.04C104.77 80.6667 105.543 80.0933 106.023 79.32C106.503 78.5467 106.756 77.5733 106.783 76.4H108.383V88.4H106.783ZM124.265 97V95.8H129.265V68.04H127.265C125.799 68.04 124.532 68.44 123.465 69.24C122.425 70.04 121.612 71.0933 121.025 72.4C120.465 73.7067 120.172 75.12 120.145 76.64H118.545V66.84H146.305V76.64H144.705C144.679 75.12 144.372 73.7067 143.785 72.4C143.225 71.0933 142.425 70.04 141.385 69.24C140.345 68.44 139.079 68.04 137.585 68.04H135.585V95.8H140.305V97H124.265ZM160.279 97.52C158.653 97.52 157.253 97.2933 156.079 96.84C154.906 96.3867 153.826 95.8 152.839 95.08L150.959 97H149.759V88.6H150.999C151.319 89.9067 151.839 91.1333 152.559 92.28C153.306 93.4267 154.306 94.36 155.559 95.08C156.813 95.7733 158.346 96.12 160.159 96.12C161.653 96.12 162.893 95.88 163.879 95.4C164.893 94.92 165.653 94.2667 166.159 93.44C166.693 92.5867 166.959 91.6533 166.959 90.64C166.959 89.6 166.719 88.76 166.239 88.12C165.759 87.48 165.133 86.9867 164.359 86.64C163.613 86.2667 162.799 85.9733 161.919 85.76C161.066 85.5467 160.253 85.3467 159.479 85.16C157.613 84.68 155.973 84.0533 154.559 83.28C153.146 82.48 152.039 81.4533 151.239 80.2C150.466 78.9467 150.079 77.3867 150.079 75.52C150.079 73.4667 150.519 71.7733 151.399 70.44C152.279 69.1067 153.439 68.12 154.879 67.48C156.319 66.8133 157.853 66.48 159.479 66.48C160.679 66.48 161.746 66.6533 162.679 67C163.639 67.3467 164.653 67.8533 165.719 68.52L167.279 66.84H168.519V75H167.319C166.546 72.4667 165.506 70.6533 164.199 69.56C162.893 68.44 161.293 67.88 159.399 67.88C158.253 67.88 157.199 68.0667 156.239 68.44C155.306 68.7867 154.559 69.2933 153.999 69.96C153.439 70.6267 153.159 71.4133 153.159 72.32C153.159 73.1733 153.399 73.88 153.879 74.44C154.359 74.9733 154.986 75.4 155.759 75.72C156.533 76.04 157.359 76.3067 158.239 76.52C159.119 76.7333 159.959 76.9333 160.759 77.12C162.786 77.6 164.493 78.2667 165.879 79.12C167.266 79.9467 168.319 81.04 169.039 82.4C169.759 83.76 170.119 85.4667 170.119 87.52C170.119 90.6667 169.266 93.12 167.559 94.88C165.879 96.64 163.453 97.52 160.279 97.52ZM187.813 97.36L179.253 69.64H179.093V95.8H183.493V97H172.933V95.8H177.333V68.04H172.933V66.84H185.573L191.213 85.04H191.373L197.013 66.84H208.613V68.04H204.453V95.8H208.613V97H193.853V95.8H198.133V69.64H197.973L189.453 97.36H187.813ZM229.923 96.4L222.603 76.36H222.443L222.203 74.88L224.923 66.48H225.963L236.843 96.4H229.923ZM209.603 97V95.8H219.363V97H209.603ZM216.763 88.84V87.68H230.523V88.84H216.763ZM225.523 97V95.8H239.403V97H225.523ZM213.123 96.4L224.923 66.48H225.963L223.883 72.84L214.443 96.4H213.123ZM265.077 97.52L246.917 71.36H246.757V95.8H251.157V97H240.597V95.8H244.997V68.04H240.597V66.84H252.277L264.917 84.64H265.077V68.04H261.077V66.84H270.837V68.04H266.837V97.52H265.077ZM284.358 97.52C282.731 97.52 281.331 97.2933 280.158 96.84C278.984 96.3867 277.904 95.8 276.918 95.08L275.038 97H273.838V88.6H275.077C275.398 89.9067 275.918 91.1333 276.638 92.28C277.384 93.4267 278.384 94.36 279.638 95.08C280.891 95.7733 282.424 96.12 284.238 96.12C285.731 96.12 286.971 95.88 287.958 95.4C288.971 94.92 289.731 94.2667 290.238 93.44C290.771 92.5867 291.038 91.6533 291.038 90.64C291.038 89.6 290.798 88.76 290.318 88.12C289.838 87.48 289.211 86.9867 288.438 86.64C287.691 86.2667 286.878 85.9733 285.998 85.76C285.144 85.5467 284.331 85.3467 283.558 85.16C281.691 84.68 280.051 84.0533 278.638 83.28C277.224 82.48 276.118 81.4533 275.318 80.2C274.544 78.9467 274.158 77.3867 274.158 75.52C274.158 73.4667 274.598 71.7733 275.478 70.44C276.358 69.1067 277.518 68.12 278.958 67.48C280.398 66.8133 281.931 66.48 283.558 66.48C284.758 66.48 285.824 66.6533 286.758 67C287.718 67.3467 288.731 67.8533 289.798 68.52L291.358 66.84H292.598V75H291.398C290.624 72.4667 289.584 70.6533 288.278 69.56C286.971 68.44 285.371 67.88 283.478 67.88C282.331 67.88 281.278 68.0667 280.318 68.44C279.384 68.7867 278.638 69.2933 278.078 69.96C277.518 70.6267 277.238 71.4133 277.238 72.32C277.238 73.1733 277.478 73.88 277.958 74.44C278.438 74.9733 279.064 75.4 279.838 75.72C280.611 76.04 281.438 76.3067 282.318 76.52C283.198 76.7333 284.038 76.9333 284.838 77.12C286.864 77.6 288.571 78.2667 289.958 79.12C291.344 79.9467 292.398 81.04 293.118 82.4C293.838 83.76 294.198 85.4667 294.198 87.52C294.198 90.6667 293.344 93.12 291.638 94.88C289.958 96.64 287.531 97.52 284.358 97.52ZM297.011 97V95.8H300.811V68.04H297.011V66.84H311.051V68.04H307.131V80.84H318.451V68.04H314.531V66.84H328.651V68.04H324.771V95.8H328.651V97H314.531V95.8H318.451V82.04H307.131V95.8H311.051V97H297.011ZM334.858 96.4V66.84H341.178V96.4H334.858ZM331.058 97V95.8H345.098V97H331.058ZM331.058 68.04V66.84H345.098V68.04H331.058ZM357.368 83.32V82.12H360.688C362.154 82.12 363.341 81.9333 364.248 81.56C365.154 81.16 365.821 80.44 366.248 79.4C366.674 78.3333 366.887 76.8 366.887 74.8C366.887 72.9067 366.714 71.48 366.368 70.52C366.021 69.56 365.501 68.9067 364.808 68.56C364.141 68.2133 363.301 68.04 362.288 68.04H347.488V66.84H364.288C366.208 66.84 367.928 67.1867 369.448 67.88C370.994 68.5733 372.221 69.5333 373.128 70.76C374.034 71.96 374.488 73.3467 374.488 74.92C374.488 76.5733 373.928 78.04 372.808 79.32C371.714 80.5733 370.141 81.56 368.088 82.28C366.034 82.9733 363.568 83.32 360.688 83.32H357.368ZM347.488 97V95.8H362.328V97H347.488ZM351.288 96.4V66.84H357.608V96.4H351.288ZM402.822 96.4L395.502 76.36H395.342L395.102 74.88L397.822 66.48H398.862L409.742 96.4H402.822ZM382.502 97V95.8H392.262V97H382.502ZM389.662 88.84V87.68H403.422V88.84H389.662ZM398.422 97V95.8H412.302V97H398.422ZM386.022 96.4L397.822 66.48H398.862L396.782 72.84L387.342 96.4H386.022ZM437.975 97.52L419.815 71.36H419.655V95.8H424.055V97H413.495V95.8H417.895V68.04H413.495V66.84H425.175L437.815 84.64H437.975V68.04H433.975V66.84H443.735V68.04H439.735V97.52H437.975ZM446.136 97V95.8H460.576C462.016 95.8 463.229 95.6 464.216 95.2C465.229 94.8 466.043 94.0933 466.656 93.08C467.296 92.0667 467.749 90.6533 468.016 88.84C468.309 87 468.456 84.6667 468.456 81.84C468.456 79.0667 468.323 76.7867 468.056 75C467.789 73.1867 467.349 71.7733 466.736 70.76C466.149 69.7467 465.376 69.04 464.416 68.64C463.456 68.24 462.296 68.04 460.936 68.04H446.136V66.84H462.176C464.123 66.84 465.936 67.24 467.616 68.04C469.296 68.84 470.763 69.9467 472.016 71.36C473.296 72.7467 474.283 74.3467 474.976 76.16C475.696 77.9467 476.056 79.8267 476.056 81.8C476.056 83.8 475.683 85.72 474.936 87.56C474.216 89.3733 473.203 90.9867 471.896 92.4C470.616 93.8133 469.109 94.9333 467.376 95.76C465.643 96.5867 463.776 97 461.776 97H446.136ZM449.936 96.4V66.84H456.256V96.4H449.936ZM24.24 141.44C24.2133 140.107 23.9333 138.88 23.4 137.76C22.8933 136.64 22.16 135.747 21.2 135.08C20.24 134.387 19.08 134.04 17.72 134.04H0.8V132.84H25.84V141.44H24.24ZM0.8 163V161.8H16.04V163H0.8ZM4.6 162.44V132.84H10.92V162.44H4.6ZM18.08 154.4C18.0533 153.12 17.8 152.067 17.32 151.24C16.84 150.413 16.0667 149.8 15 149.4C13.9333 149 12.52 148.8 10.76 148.8V147.6C12.52 147.6 13.9333 147.413 15 147.04C16.0667 146.667 16.84 146.093 17.32 145.32C17.8 144.547 18.0533 143.573 18.08 142.4H19.68V154.4H18.08ZM33.6859 162.4V132.84H40.0059V162.4H33.6859ZM29.8859 163V161.8H43.9259V163H29.8859ZM29.8859 134.04V132.84H43.9259V134.04H29.8859ZM70.7956 163.52L52.6356 137.36H52.4756V161.8H56.8756V163H46.3156V161.8H50.7156V134.04H46.3156V132.84H57.9956L70.6356 150.64H70.7956V134.04H66.7956V132.84H76.5556V134.04H72.5556V163.52H70.7956ZM78.9563 163V161.8H95.8763C97.3696 161.8 98.6363 161.4 99.6763 160.6C100.716 159.8 101.516 158.747 102.076 157.44C102.663 156.133 102.97 154.72 102.996 153.2H104.596V163H78.9563ZM82.7563 162.4V132.84H89.0763V162.4H82.7563ZM96.2363 154.36C96.2096 153.08 95.9563 152.027 95.4763 151.2C94.9963 150.373 94.2229 149.76 93.1563 149.36C92.0896 148.96 90.6763 148.76 88.9163 148.76V147.56C90.6763 147.56 92.0896 147.373 93.1563 147C94.2229 146.627 94.9963 146.053 95.4763 145.28C95.9563 144.507 96.2096 143.533 96.2363 142.36H97.8363V154.36H96.2363ZM102.396 140.84C102.37 139.613 102.09 138.493 101.556 137.48C101.05 136.44 100.316 135.613 99.3563 135C98.3963 134.36 97.2363 134.04 95.8763 134.04H78.9563V132.84H103.996V140.84H102.396ZM118.928 163.52C117.301 163.52 115.901 163.293 114.728 162.84C113.554 162.387 112.474 161.8 111.488 161.08L109.608 163H108.408V154.6H109.648C109.968 155.907 110.488 157.133 111.208 158.28C111.954 159.427 112.954 160.36 114.208 161.08C115.461 161.773 116.994 162.12 118.808 162.12C120.301 162.12 121.541 161.88 122.528 161.4C123.541 160.92 124.301 160.267 124.808 159.44C125.341 158.587 125.608 157.653 125.608 156.64C125.608 155.6 125.368 154.76 124.888 154.12C124.408 153.48 123.781 152.987 123.008 152.64C122.261 152.267 121.448 151.973 120.568 151.76C119.714 151.547 118.901 151.347 118.128 151.16C116.261 150.68 114.621 150.053 113.208 149.28C111.794 148.48 110.688 147.453 109.888 146.2C109.114 144.947 108.728 143.387 108.728 141.52C108.728 139.467 109.168 137.773 110.048 136.44C110.928 135.107 112.088 134.12 113.528 133.48C114.968 132.813 116.501 132.48 118.128 132.48C119.328 132.48 120.394 132.653 121.328 133C122.288 133.347 123.301 133.853 124.368 134.52L125.928 132.84H127.168V141H125.968C125.194 138.467 124.154 136.653 122.848 135.56C121.541 134.44 119.941 133.88 118.048 133.88C116.901 133.88 115.848 134.067 114.888 134.44C113.954 134.787 113.208 135.293 112.648 135.96C112.088 136.627 111.808 137.413 111.808 138.32C111.808 139.173 112.048 139.88 112.528 140.44C113.008 140.973 113.634 141.4 114.408 141.72C115.181 142.04 116.008 142.307 116.888 142.52C117.768 142.733 118.608 142.933 119.408 143.12C121.434 143.6 123.141 144.267 124.528 145.12C125.914 145.947 126.968 147.04 127.688 148.4C128.408 149.76 128.768 151.467 128.768 153.52C128.768 156.667 127.914 159.12 126.208 160.88C124.528 162.64 122.101 163.52 118.928 163.52ZM143.639 163.52C142.012 163.52 140.612 163.293 139.439 162.84C138.265 162.387 137.185 161.8 136.199 161.08L134.319 163H133.119V154.6H134.359C134.679 155.907 135.199 157.133 135.919 158.28C136.665 159.427 137.665 160.36 138.919 161.08C140.172 161.773 141.705 162.12 143.519 162.12C145.012 162.12 146.252 161.88 147.239 161.4C148.252 160.92 149.012 160.267 149.519 159.44C150.052 158.587 150.319 157.653 150.319 156.64C150.319 155.6 150.079 154.76 149.599 154.12C149.119 153.48 148.492 152.987 147.719 152.64C146.972 152.267 146.159 151.973 145.279 151.76C144.425 151.547 143.612 151.347 142.839 151.16C140.972 150.68 139.332 150.053 137.919 149.28C136.505 148.48 135.399 147.453 134.599 146.2C133.825 144.947 133.439 143.387 133.439 141.52C133.439 139.467 133.879 137.773 134.759 136.44C135.639 135.107 136.799 134.12 138.239 133.48C139.679 132.813 141.212 132.48 142.839 132.48C144.039 132.48 145.105 132.653 146.039 133C146.999 133.347 148.012 133.853 149.079 134.52L150.639 132.84H151.879V141H150.679C149.905 138.467 148.865 136.653 147.559 135.56C146.252 134.44 144.652 133.88 142.759 133.88C141.612 133.88 140.559 134.067 139.599 134.44C138.665 134.787 137.919 135.293 137.359 135.96C136.799 136.627 136.519 137.413 136.519 138.32C136.519 139.173 136.759 139.88 137.239 140.44C137.719 140.973 138.345 141.4 139.119 141.72C139.892 142.04 140.719 142.307 141.599 142.52C142.479 142.733 143.319 142.933 144.119 143.12C146.145 143.6 147.852 144.267 149.239 145.12C150.625 145.947 151.679 147.04 152.399 148.4C153.119 149.76 153.479 151.467 153.479 153.52C153.479 156.667 152.625 159.12 150.919 160.88C149.239 162.64 146.812 163.52 143.639 163.52ZM156.292 163V161.8H173.212C174.706 161.8 175.972 161.4 177.012 160.6C178.052 159.8 178.852 158.747 179.412 157.44C179.999 156.133 180.306 154.72 180.332 153.2H181.932V163H156.292ZM160.092 162.4V132.84H166.412V162.4H160.092ZM173.572 154.36C173.546 153.08 173.292 152.027 172.812 151.2C172.332 150.373 171.559 149.76 170.492 149.36C169.426 148.96 168.012 148.76 166.252 148.76V147.56C168.012 147.56 169.426 147.373 170.492 147C171.559 146.627 172.332 146.053 172.812 145.28C173.292 144.507 173.546 143.533 173.572 142.36H175.172V154.36H173.572ZM179.732 140.84C179.706 139.613 179.426 138.493 178.892 137.48C178.386 136.44 177.652 135.613 176.692 135C175.732 134.36 174.572 134.04 173.212 134.04H156.292V132.84H181.332V140.84H179.732Z" fill="black"/>
</svg>
